# xmcd CD database file
# Copyright (C) 1993-1998 Ti Kan
#
# Track frame offsets:
#  150
#  10160
#  19837
#  35675
#  51822
#  62355
#  74550
#  90787
#  107750
#  117752
#  132555
#  147400
#  161037
#  173115
#
# Disc length: 2481 seconds
#
# Revision: 1
# Processed by: cddbd v1.4b41PL1 Copyright (c) Steve Scherf et al.
# Submitted via: CDWizzard Release:4.35
#
DISCID=bc09af0e
DTITLE=Ray Charles - The World Of Ray Charles
DYEAR=1900
DGENRE=
TTITLE0=Hey Good Lookin'
TTITLE1=Don't Tell Me Your Troubles
TTITLE2=Just A Little Lovin'
TTITLE3=It Makes No Difference Now
TTITLE4=I'll Never Stand In Your Way
TTITLE5=Someday (You'll Want Me To Want You)
TTITLE6=I Love You So Much It Hurts
TTITLE7=Careless Love
TTITLE8=Oh, Lonesome Me
TTITLE9=Hang Your Head In Shame
TTITLE10=Midnight
TTITLE11=No Letter Today
TTITLE12=Together Again
TTITLE13=Don't Let Her Know
EXTD=
EXTT0=
EXTT1=
EXTT2=
EXTT3=
EXTT4=
EXTT5=
EXTT6=
EXTT7=
EXTT8=
EXTT9=
EXTT10=
EXTT11=
EXTT12=
EXTT13=
PLAYORDER=
